<svg width="38" height="39" viewBox="0 0 38 39" fill="none" xmlns="http://www.w3.org/2000/svg">
<path d="M16.2093 24.5694L12.1393 20.4552L10.1138 22.5026L16.1902 28.6449L27.655 17.0556L25.6295 15.0082L16.2093 24.5694ZM29.197 0L38 7.42682L35.5542 10.3918L26.7454 2.9688L29.197 0ZM8.80113 0L11.2508 2.96687L2.44582 10.3918L0 7.42489L8.80113 0ZM18.999 4.2301C14.4378 4.23036 10.0635 6.06223 6.83842 9.32272C3.61332 12.5832 1.80163 17.0052 1.80188 21.616C1.80213 26.2268 3.61432 30.6486 6.83977 33.9087C10.0652 37.1689 14.4397 39.0003 19.001 39C21.2594 38.9999 23.4958 38.5501 25.5823 37.6763C27.6688 36.8025 29.5647 35.5218 31.1616 33.9074C32.7585 32.293 34.0252 30.3764 34.8894 28.2671C35.7535 26.1578 36.1982 23.8971 36.1981 21.6141C36.198 19.3311 35.753 17.0704 34.8886 14.9612C34.0242 12.852 32.7573 10.9356 31.1602 9.32135C29.5632 7.7071 27.6672 6.42664 25.5806 5.55308C23.4939 4.67952 21.2575 4.22998 18.999 4.2301ZM18.999 35.135C11.6234 35.135 5.62347 29.0699 5.62347 21.6141C5.62347 14.1583 11.6234 8.09321 18.999 8.09321C26.3747 8.09321 32.3746 14.1583 32.3746 21.6141C32.3746 29.0699 26.3747 35.135 18.999 35.135Z" fill="white"/>
</svg>
